<svg id="Logo" xmlns="http://www.w3.org/2000/svg" xmlns:xlink="http://www.w3.org/1999/xlink" width="151.31" height="27.084" viewBox="0 0 151.31 27.084">
  <defs>
    <clipPath id="clip-path">
      <rect id="Rectangle_968" data-name="Rectangle 968" width="151.31" height="27.084" fill="#eff0fe"/>
    </clipPath>
  </defs>
  <g id="Group_16827" data-name="Group 16827" transform="translate(0 0)" clip-path="url(#clip-path)">
    <path id="Path_7148" data-name="Path 7148" d="M93.065,27.928c-1.576-.3-2.636-.761-2.636-1.984,0-.924.788-1.658,2.147-1.658a2.505,2.505,0,0,1,2.473,1.766l1.549-.978a4.107,4.107,0,0,0-4.022-2.528c-2.636,0-4.131,1.631-4.131,3.424,0,2.473,2.147,3.343,3.859,3.7,1.685.353,2.717.9,2.717,2.065,0,1.114-.923,1.794-2.555,1.794a3.226,3.226,0,0,1-2.826-1.821l-1.658.978a4.9,4.9,0,0,0,4.484,2.69c3.071,0,4.539-1.766,4.539-3.641,0-1.6-.842-3.207-3.94-3.8" transform="translate(-60.379 -15.473)" fill="#eff0fe"/>
    <path id="Path_7149" data-name="Path 7149" d="M129.944,22.547a6.414,6.414,0,1,0,6.468,6.441,6.341,6.341,0,0,0-6.468-6.441m0,10.925a4.343,4.343,0,0,1-4.43-4.484,4.431,4.431,0,1,1,8.86,0,4.359,4.359,0,0,1-4.43,4.484" transform="translate(-84.736 -15.473)" fill="#eff0fe"/>
    <path id="Path_7150" data-name="Path 7150" d="M178.715,22.547a4.41,4.41,0,0,0-3.968,2.092V22.846h-1.739V35.075h1.9V28.2a3.492,3.492,0,0,1,3.479-3.8,3.141,3.141,0,0,1,3.261,3.424v7.256h1.9V27.411a4.643,4.643,0,0,0-4.837-4.864" transform="translate(-118.727 -15.473)" fill="#eff0fe"/>
    <path id="Path_7151" data-name="Path 7151" d="M219.986,22.548a5.053,5.053,0,0,0-4.946,3.207l1.495.978a3.469,3.469,0,0,1,3.452-2.338c2.092,0,3.125,1.224,3.125,2.175a1.319,1.319,0,0,1-1.468,1.3h-2.935c-2.337,0-4.1,1.386-4.1,3.56s1.875,3.94,4.756,3.94a4.5,4.5,0,0,0,3.995-2.092v1.793H225.1v-7.99c0-2.473-1.93-4.538-5.109-4.538m3.207,7.174a3.561,3.561,0,0,1-3.832,3.805c-1.766,0-2.717-.951-2.717-2.093a1.906,1.906,0,0,1,2.092-1.875h4.457Z" transform="translate(-147.273 -15.474)" fill="#eff0fe"/>
    <path id="Path_7152" data-name="Path 7152" d="M261.938,24.8V22.846H260.2V35.075h1.9V28.308a3.512,3.512,0,0,1,3.615-3.832h.843V22.547h-.843a4.021,4.021,0,0,0-3.778,2.255" transform="translate(-178.562 -15.473)" fill="#eff0fe"/>
    <path id="Path_7153" data-name="Path 7153" d="M294.049,32.087,289.864,23.5H287.69l6.36,12.637h.027l6.36-12.637h-2.175Z" transform="translate(-197.428 -16.127)" fill="#eff0fe"/>
    <path id="Path_7154" data-name="Path 7154" d="M337.208,22.548a6.259,6.259,0,0,0-6.359,6.414,6.425,6.425,0,0,0,6.495,6.413,6.356,6.356,0,0,0,5.572-3.125l-1.549-1.005a4.653,4.653,0,0,1-4.023,2.228,4.443,4.443,0,0,1-4.429-3.886H343.4a6.137,6.137,0,0,0-6.2-7.038M333,27.82a4.163,4.163,0,0,1,4.212-3.4,3.968,3.968,0,0,1,4.1,3.4Z" transform="translate(-227.046 -15.474)" fill="#eff0fe"/>
    <path id="Path_7155" data-name="Path 7155" d="M382.5,24.8V22.846h-1.739V35.075h1.9V28.308a3.512,3.512,0,0,1,3.615-3.832h.843V22.547h-.843A4.021,4.021,0,0,0,382.5,24.8" transform="translate(-261.299 -15.473)" fill="#eff0fe"/>
    <path id="Path_7156" data-name="Path 7156" d="M411.664,27.928c-1.576-.3-2.636-.761-2.636-1.984,0-.924.788-1.658,2.147-1.658a2.505,2.505,0,0,1,2.473,1.766l1.549-.978a4.107,4.107,0,0,0-4.022-2.528c-2.636,0-4.131,1.631-4.131,3.424,0,2.473,2.147,3.343,3.859,3.7,1.685.353,2.717.9,2.717,2.065,0,1.114-.923,1.794-2.554,1.794a3.226,3.226,0,0,1-2.827-1.821l-1.658.978a4.9,4.9,0,0,0,4.484,2.69c3.071,0,4.538-1.766,4.538-3.641,0-1.6-.842-3.207-3.94-3.8" transform="translate(-279.018 -15.473)" fill="#eff0fe"/>
    <path id="Path_7157" data-name="Path 7157" d="M448.435,22.548a6.259,6.259,0,0,0-6.36,6.414,6.426,6.426,0,0,0,6.5,6.413,6.356,6.356,0,0,0,5.571-3.125l-1.549-1.005a4.652,4.652,0,0,1-4.022,2.228,4.443,4.443,0,0,1-4.43-3.886h10.49a6.136,6.136,0,0,0-6.2-7.038m-4.213,5.272a4.164,4.164,0,0,1,4.213-3.4,3.968,3.968,0,0,1,4.1,3.4Z" transform="translate(-303.375 -15.474)" fill="#eff0fe"/>
    <path id="Path_7158" data-name="Path 7158" d="M10.64,66.381A9.72,9.72,0,0,1,3.1,62.805L0,65.9a15.363,15.363,0,0,0,21.28,0l-3.1-3.1a9.721,9.721,0,0,1-7.542,3.576" transform="translate(0 -43.1)" fill="#eff0fe"/>
    <path id="Path_7159" data-name="Path 7159" d="M0,4.281l3.1,3.1a9.74,9.74,0,0,1,15.086,0l3.1-3.1A15.363,15.363,0,0,0,0,4.281" transform="translate(0 0)" fill="#eff0fe"/>
    <path id="Path_7160" data-name="Path 7160" d="M28.341,37.589a3.764,3.764,0,1,0-5.323,0,3.765,3.765,0,0,0,5.323,0" transform="translate(-15.04 -21.386)" fill="#eff0fe"/>
  </g>
</svg>
