<svg width="125" height="159" viewBox="0 0 125 159" fill="none" xmlns="http://www.w3.org/2000/svg">
<path d="M62.3723 136.475C44.5482 136.475 28.6351 128.305 18.1643 115.51L0 133.672C34.8334 167.132 89.9112 167.132 124.745 133.672L106.582 115.51C96.1095 128.305 80.1964 136.475 62.3723 136.475Z" fill="#FBFBFB"/>
<path d="M0 25.0953L18.1551 43.2504C28.6278 30.4493 44.5427 22.2757 62.3723 22.2757C80.2 22.2757 96.1168 30.4493 106.589 43.2504L124.745 25.0953C89.9112 -8.36417 34.8334 -8.36601 0 25.0953Z" fill="#FBFBFB"/>
<path d="M77.9739 94.9876C86.5871 86.3708 86.5871 72.4017 77.9739 63.7849C69.3553 55.1681 55.3881 55.1681 46.7712 63.7849C38.1544 72.4017 38.1544 86.3708 46.7712 94.9876C55.3881 103.604 69.3553 103.604 77.9739 94.9876Z" fill="#FBFBFB"/>
</svg>
