<svg width="887" height="159" viewBox="0 0 887 159" fill="none" xmlns="http://www.w3.org/2000/svg">
<path d="M191.614 73.0156C182.374 71.2646 176.159 68.5536 176.159 61.3861C176.159 55.9677 180.781 51.6676 188.745 51.6676C194.8 51.6676 201.173 55.0131 203.243 62.0225L212.324 56.2896C208.662 47.0474 199.896 41.4727 188.745 41.4727C173.291 41.4727 164.529 51.0312 164.529 61.5443C164.529 76.043 177.115 81.1395 187.152 83.2123C197.031 85.2815 203.082 88.4689 203.082 95.3182C203.082 101.851 197.669 105.835 188.107 105.835C181.417 105.835 174.726 101.689 171.539 95.1601L161.822 100.893C166.602 109.659 175.046 116.664 188.107 116.664C206.109 116.664 214.713 106.31 214.713 95.3182C214.713 85.9179 209.775 76.5194 191.614 73.0156Z" fill="#362166"/>
<path d="M265.018 41.4727C244.15 41.4727 227.102 57.2441 227.102 79.2304C227.102 101.057 244.15 116.666 265.018 116.666C286.048 116.666 302.935 101.057 302.935 79.2304C302.935 57.2441 286.048 41.4727 265.018 41.4727ZM265.018 105.515C250.363 105.515 239.05 94.5218 239.05 79.2304C239.05 63.7753 250.363 52.6239 265.018 52.6239C279.516 52.6239 290.986 63.7753 290.986 79.2304C290.986 94.5218 279.516 105.515 265.018 105.515Z" fill="#362166"/>
<path d="M351.658 41.4727C338.914 41.4727 330.948 48.642 328.397 53.7385V43.2236H318.202V114.913H329.356V74.6084C329.356 61.0679 338.118 52.3039 349.747 52.3039C361.217 52.3039 368.864 60.1097 368.864 72.3774V114.913H380.015V69.9882C380.015 53.8967 369.022 41.4727 351.658 41.4727Z" fill="#362166"/>
<path d="M426.257 41.4727C411.12 41.4727 401.721 49.5966 397.261 60.2715L406.023 66.0062C409.051 58.1987 415.423 52.3021 426.257 52.3021C438.522 52.3021 444.577 59.4751 444.577 65.0499C444.577 69.5082 441.232 72.6956 435.973 72.6956H418.767C405.069 72.6956 394.71 80.8213 394.71 93.5654C394.71 106.31 405.703 116.664 422.591 116.664C434.859 116.664 443.779 109.497 446.01 104.4V114.913H456.207V68.0772C456.207 53.5785 444.894 41.4727 426.257 41.4727ZM445.055 83.5287C445.055 96.7528 436.77 105.835 422.591 105.835C412.236 105.835 406.661 100.258 406.661 93.5654C406.661 87.1943 411.6 82.5741 418.925 82.5741H445.055V83.5287Z" fill="#362166"/>
<path d="M488.765 54.6931V43.2255H478.569V114.913H489.72V75.2466C489.72 62.1825 497.686 52.7821 510.91 52.7821H515.85V41.4727H510.91C500.871 41.4727 491.951 46.8892 488.765 54.6931Z" fill="#362166"/>
<path d="M566.411 93.564L541.878 43.2222H529.13L566.411 117.301H566.569L603.851 43.2222H591.103L566.411 93.564Z" fill="#362166"/>
<path d="M645.788 41.4727C623.485 41.4727 608.51 58.8369 608.51 79.0704C608.51 99.462 624.92 116.664 646.584 116.664C660.445 116.664 672.714 109.659 679.245 98.3456L670.165 92.4527C665.383 100.577 656.304 105.513 646.584 105.513C634.956 105.513 622.531 97.3892 620.618 82.7323H682.113C684.978 59.6333 667.934 41.4727 645.788 41.4727ZM621.096 72.3774C623.643 61.0679 632.405 52.4639 645.788 52.4639C659.648 52.4639 669.049 62.4988 669.845 72.3774H621.096Z" fill="#362166"/>
<path d="M710.51 54.6931V43.2255H700.313V114.913H711.465V75.2466C711.465 62.1825 719.431 52.7821 732.655 52.7821H737.595V41.4727H732.655C722.616 41.4727 713.696 46.8892 710.51 54.6931Z" fill="#362166"/>
<path d="M777.593 73.0156C768.353 71.2646 762.138 68.5536 762.138 61.3861C762.138 55.9677 766.76 51.6676 774.724 51.6676C780.779 51.6676 787.152 55.0131 789.223 62.0225L798.303 56.2896C794.641 47.0474 785.875 41.4727 774.724 41.4727C759.271 41.4727 750.509 51.0312 750.509 61.5443C750.509 76.043 763.095 81.1395 773.132 83.2123C783.01 85.2815 789.061 88.4689 789.061 95.3182C789.061 101.851 783.648 105.835 774.088 105.835C767.396 105.835 760.705 101.689 757.518 95.1601L747.802 100.893C752.582 109.659 761.026 116.664 774.088 116.664C792.089 116.664 800.692 106.31 800.692 95.3182C800.692 85.9179 795.754 76.5194 777.593 73.0156Z" fill="#362166"/>
<path d="M850.363 41.4727C828.057 41.4727 813.082 58.8369 813.082 79.0704C813.082 99.462 829.491 116.664 851.159 116.664C865.02 116.664 877.286 109.659 883.819 98.3456L874.736 92.4527C869.958 100.577 860.876 105.513 851.159 105.513C839.528 105.513 827.102 97.3892 825.191 82.7323H886.684C889.553 59.6333 872.505 41.4727 850.363 41.4727ZM825.667 72.3774C828.219 61.0679 836.981 52.4639 850.363 52.4639C864.223 52.4639 873.624 62.4988 874.42 72.3774H825.667Z" fill="#362166"/>
<path d="M62.3723 136.475C44.5482 136.475 28.6351 128.305 18.1643 115.51L0 133.672C34.8334 167.132 89.9112 167.132 124.745 133.672L106.582 115.51C96.1095 128.305 80.1964 136.475 62.3723 136.475Z" fill="#362166"/>
<path d="M0 25.0953L18.1551 43.2504C28.6278 30.4493 44.5427 22.2757 62.3723 22.2757C80.2 22.2757 96.1168 30.4493 106.589 43.2504L124.745 25.0953C89.9112 -8.36417 34.8334 -8.36601 0 25.0953Z" fill="#362166"/>
<path d="M77.9739 94.9876C86.5871 86.3708 86.5871 72.4017 77.9739 63.7849C69.3553 55.1681 55.3881 55.1681 46.7712 63.7849C38.1544 72.4017 38.1544 86.3708 46.7712 94.9876C55.3881 103.604 69.3553 103.604 77.9739 94.9876Z" fill="#362166"/>
</svg>
